<svg width="29" height="12" viewBox="0 0 29 12" fill="none" xmlns="http://www.w3.org/2000/svg">
<path d="M2.2487 0.315406L13.5702 9.53686C13.8173 9.7391 14.1507 9.85254 14.4982 9.85254C14.8457 9.85254 15.1791 9.7391 15.4262 9.53686L26.7501 0.317406C26.9987 0.115267 27.3332 0.00200071 27.6817 0.00200071C28.0302 0.0020007 28.3647 0.115267 28.6133 0.317406C28.7357 0.416154 28.833 0.534179 28.8994 0.664524C28.9658 0.79487 29 0.9349 29 1.07636C29 1.21782 28.9658 1.35785 28.8994 1.4882C28.833 1.61854 28.7357 1.73657 28.6133 1.83531L17.2942 11.0548C16.5486 11.6606 15.5455 12 14.5006 12C13.4558 12 12.4526 11.6606 11.7071 11.0548L0.387957 1.83532C0.26519 1.73654 0.167604 1.61839 0.100967 1.48786C0.0343323 1.35733 -1.89284e-06 1.21706 -1.89453e-06 1.07536C-1.89621e-06 0.93366 0.0343323 0.793396 0.100967 0.662865C0.167604 0.532334 0.26519 0.414186 0.387957 0.315406C0.636511 0.113267 0.971054 3.34242e-07 1.31954 3.30086e-07C1.66802 3.25931e-07 2.00256 0.113267 2.25112 0.315406" fill="white"/>
</svg>
